<?xml version="1.0" encoding="utf-8"?>
<!-- Generator: Adobe Illustrator 18.1.0, SVG Export Plug-In . SVG Version: 6.00 Build 0)  -->
<svg version="1.1" id="Layer_1" xmlns="http://www.w3.org/2000/svg" xmlns:xlink="http://www.w3.org/1999/xlink" x="0px" y="0px"
	 viewBox="0 0 48 48" enable-background="new 0 0 48 48" xml:space="preserve">
<g id="Layer_1_1_" display="none">
	<circle display="inline" fill="none" stroke="#757576" stroke-width="3" stroke-miterlimit="10" cx="23.8" cy="24.3" r="22"/>
	<g display="inline">
		<g>
			<line fill="none" stroke="#757576" stroke-width="3" stroke-miterlimit="10" x1="27" y1="18.8" x2="35.6" y2="18.8"/>
			<line fill="none" stroke="#757576" stroke-width="3" stroke-miterlimit="10" x1="12" y1="18.8" x2="20.6" y2="18.8"/>
		</g>
		<line fill="none" stroke="#757576" stroke-width="3" stroke-miterlimit="10" x1="12" y1="31.8" x2="35.6" y2="31.8"/>
	</g>
</g>
<g>
	<circle fill="none" stroke="#EF5350" stroke-width="3" stroke-miterlimit="10" cx="23.8" cy="24" r="22"/>
	<g display="none">
		
			<line display="inline" fill="none" stroke="#EF5350" stroke-width="3" stroke-miterlimit="10" x1="27" y1="20.1" x2="35.6" y2="20.1"/>
		
			<line display="inline" fill="none" stroke="#EF5350" stroke-width="3" stroke-miterlimit="10" x1="12" y1="20.1" x2="20.6" y2="20.1"/>
	</g>
	
		<line display="none" fill="none" stroke="#EF5350" stroke-width="3" stroke-miterlimit="10" x1="12" y1="33.1" x2="35.6" y2="33.1"/>
</g>
<line fill="none" stroke="#EF5350" stroke-width="3" stroke-miterlimit="10" x1="34.7" y1="14.1" x2="27.1" y2="18.4"/>
<line fill="none" stroke="#EF5350" stroke-width="3" stroke-miterlimit="10" x1="34.7" y1="22.7" x2="27.1" y2="18.4"/>
<rect x="26.4" y="17.1" fill="#EF5350" width="1.8" height="2.6"/>
<line fill="none" stroke="#EF5350" stroke-width="3" stroke-miterlimit="10" x1="13.4" y1="14.1" x2="20.9" y2="18.4"/>
<line fill="none" stroke="#EF5350" stroke-width="3" stroke-miterlimit="10" x1="13.4" y1="22.7" x2="20.9" y2="18.4"/>
<rect x="19.8" y="17.1" fill="#EF5350" width="1.8" height="2.6"/>
<path fill="none" stroke="#EF5350" stroke-width="3" stroke-miterlimit="10" d="M13.4,35c0,0,9.7-10.5,20.6,0"/>
<g id="Layer_3" display="none">
	<g display="inline">
		<circle fill="none" stroke="#757576" stroke-width="3" stroke-miterlimit="10" cx="23.8" cy="24" r="22"/>
		<g display="none">
			
				<line display="inline" fill="none" stroke="#000000" stroke-width="3" stroke-miterlimit="10" x1="27" y1="20.1" x2="35.6" y2="20.1"/>
			
				<line display="inline" fill="none" stroke="#000000" stroke-width="3" stroke-miterlimit="10" x1="12" y1="20.1" x2="20.6" y2="20.1"/>
		</g>
		
			<line display="none" fill="none" stroke="#000000" stroke-width="3" stroke-miterlimit="10" x1="12" y1="33.1" x2="35.6" y2="33.1"/>
	</g>
	<path display="inline" fill="none" stroke="#757576" stroke-width="3" stroke-miterlimit="10" d="M13.4,32.3c0,0,9.7,10.5,20.6,0"
		/>
	<path display="inline" fill="none" stroke="#757576" stroke-width="3" stroke-miterlimit="10" d="M28.3,20.7c0,0,4.7-11.2,9.3,0"/>
	<path display="inline" fill="none" stroke="#757576" stroke-width="3" stroke-miterlimit="10" d="M10.3,20.7c0,0,4.7-11.2,9.3,0"/>
</g>
</svg>
